<svg xmlns="http://www.w3.org/2000/svg" viewBox="0 0 20 20" shape-rendering="crispEdges" width="80" height="80">
  <g fill="#5b8fd9">
    <rect x="11" y="3" width="6" height="1"/>
    <rect x="10" y="4" width="7" height="1"/>
    <rect x="10" y="5" width="7" height="1"/>
    <rect x="10" y="6" width="3" height="1"/>
    <rect x="14" y="6" width="3" height="1"/>
    <rect x="10" y="7" width="7" height="1"/>
    <rect x="11" y="8" width="6" height="1"/>
    <rect x="3"  y="8"  width="9"  height="1"/>
    <rect x="2"  y="9"  width="11" height="1"/>
    <rect x="2"  y="10" width="12" height="1"/>
    <rect x="2"  y="11" width="12" height="1"/>
    <rect x="3"  y="12" width="10" height="1"/>
    <rect x="3"  y="13" width="9"  height="1"/>
    <rect x="11" y="12" width="2" height="1"/>
    <rect x="3"  y="14" width="3" height="2"/>
    <rect x="9"  y="14" width="3" height="2"/>
    <rect x="3"  y="16" width="4" height="1"/>
    <rect x="8"  y="16" width="4" height="1"/>
  </g>
  <rect x="14" y="5" width="1" height="1" fill="#ffffff"/>
</svg>
